HIERARCHY
ROOT Hips
{
	OFFSET 0.000000 8.830580 0.000000
	CHANNELS 6 Xposition Yposition Zposition Zrotation Yrotation Xrotation 
	JOINT Spine
	{
		OFFSET 0.000000 0.010000 0.000000
		CHANNELS 3 Zrotation Yrotation Xrotation
		JOINT Spine1
		{
			OFFSET 0.000000 2.459130 0.000000
			CHANNELS 3 Zrotation Yrotation Xrotation
			JOINT Neck
			{
				OFFSET 0.000000 2.484630 0.000000
				CHANNELS 3 Zrotation Yrotation Xrotation
				JOINT Head_virtual
				{
					OFFSET 0.000000 0.000000 0.000000
					CHANNELS 3 Zrotation Yrotation Xrotation
					JOINT Head
					{
						OFFSET 0.000000 0.927525 0.000000
						CHANNELS 3 Zrotation Yrotation Xrotation
						End Site
						{
							OFFSET 0.000000 0.000000 0.000000
						}
					}
				}
				JOINT LeftUpArm_virtual
				{
					OFFSET 0.000000 0.000000 0.000000
					CHANNELS 3 Zrotation Yrotation Xrotation
					JOINT LeftUpArm
					{
						OFFSET 1.248820 0.000000 0.000000
						CHANNELS 3 Zrotation Yrotation Xrotation
						JOINT LeftForeArm
						{
							OFFSET 2.597580 0.000000 0.000000
							CHANNELS 3 Zrotation Yrotation Xrotation
							JOINT LeftHand
							{
								OFFSET 2.455420 0.000000 0.000000
								CHANNELS 3 Zrotation Yrotation Xrotation
								End Site
								{
									OFFSET 0.000000 0.000000 0.000000
								}
							}
						}
					}
				}
				JOINT RightUpArm_virtual
				{
					OFFSET -0.000000 -0.000000 -0.000000
					CHANNELS 3 Zrotation Yrotation Xrotation
					JOINT RightUpArm
					{
						OFFSET -1.248820 -0.000000 -0.000000
						CHANNELS 3 Zrotation Yrotation Xrotation
						JOINT RightForeArm
						{
							OFFSET -2.597580 -0.000000 -0.000000
							CHANNELS 3 Zrotation Yrotation Xrotation
							JOINT RightHand
							{
								OFFSET -2.455420 -0.000000 -0.000000
								CHANNELS 3 Zrotation Yrotation Xrotation
								End Site
								{
									OFFSET 0.000000 0.000000 0.000000
								}
							}
						}
					}
				}
			}
		}
	}
	JOINT LeftUpLeg
	{
		OFFSET 1.271939 0.000000 0.000000
		CHANNELS 3 Zrotation Yrotation Xrotation
		JOINT LeftLowLeg
		{
			OFFSET 0.000000 -4.342910 0.000000
			CHANNELS 3 Zrotation Yrotation Xrotation
			JOINT LeftFoot
			{
				OFFSET 0.000000 -4.487670 0.000000
				CHANNELS 3 Zrotation Yrotation Xrotation
				JOINT LeftToeBase
				{
					OFFSET 0.000000 0.000000 1.515070
					CHANNELS 3 Zrotation Yrotation Xrotation
					End Site
					{
						OFFSET 0.000000 0.000000 0.000000
					}
				}
			}
		}
	}
	JOINT RightUpLeg
	{
		OFFSET -1.271939 0.000000 0.000000
		CHANNELS 3 Zrotation Yrotation Xrotation
		JOINT RightLowLeg
		{
			OFFSET 0.000000 -4.342910 0.000000
			CHANNELS 3 Zrotation Yrotation Xrotation
			JOINT RightFoot
			{
				OFFSET 0.000000 -4.487670 0.000000
				CHANNELS 3 Zrotation Yrotation Xrotation
				JOINT RightToeBase
				{
					OFFSET 0.000000 0.000000 1.515070
					CHANNELS 3 Zrotation Yrotation Xrotation
					End Site
					{
						OFFSET 0.000000 0.000000 0.000000
					}
				}
			}
		}
	}
}
MOTION
Frames: 7
Frame Time: 0.041667
-15.968565 8.977470 35.153609 -176.360141 -25.841023 -167.678939 6.269915 -0.388115 -29.731250 -3.092941 0.406771 12.754926 0.000000 0.000000 0.000000 13.013909 4.072551 -2.248519 -10.931139 -7.693976 -70.945835 -29.968300 -2.266960 10.848500 -41.560001 -11.289000 11.673004 0.000000 -12.523400 0.000000 6.572160 11.317900 25.007099 32.059399 -2.542770 3.959060 43.397202 5.139150 19.410004 0.000000 13.154900 0.000000 -1.303760 -5.469590 7.740910 2.105230 -21.602393 -10.715254 0.000000 0.000000 6.034650 0.417173 21.166338 -3.301344 0.000000 0.000000 -10.945930 3.660598 34.396723 -10.647368 0.000000 0.000000 4.048720 0.598355 -28.919984 4.340648 0.000000 0.000000 -18.465940 
-15.971103 8.976939 35.148173 -176.365480 -25.822441 -167.651823 6.275700 -0.430442 -29.683321 -3.023702 0.372816 12.675273 0.000000 0.000000 0.000000 12.967795 4.111141 -2.060178 -10.960599 -7.762988 -70.985981 -29.802601 -1.949240 10.541700 -41.828098 -9.834100 11.497009 0.000000 -11.871700 0.000000 6.872760 11.698000 25.567101 32.011299 -2.683660 3.912470 43.505600 4.339360 18.894012 0.000000 12.353600 0.000000 -0.729112 -6.035640 11.080200 2.093178 -21.605066 -10.698365 0.000000 0.000000 6.035270 0.438507 21.197163 -3.323704 0.000000 0.000000 -10.964220 3.663970 34.421605 -10.624388 0.000000 0.000000 4.034580 0.564188 -28.946334 4.328488 0.000000 0.000000 -18.463140 
-15.974350 8.976695 35.141950 -176.354456 -25.814191 -167.567965 6.287374 -0.455718 -29.721934 -2.950054 0.353337 12.568543 0.000000 0.000000 0.000000 12.901629 4.189300 -1.770652 -10.934381 -7.855012 -71.034370 -29.634701 -1.607380 10.335500 -42.176300 -8.526280 10.334991 0.000000 -11.072300 0.000000 6.994550 11.858600 26.373699 31.934200 -2.889160 3.919160 43.626701 3.637110 18.390015 0.000000 11.587300 0.000000 -0.536516 -6.312110 11.593700 2.140735 -21.749068 -10.731115 0.000000 0.000000 5.993820 0.427533 21.350079 -3.343593 0.000000 0.000000 -10.973300 3.629769 34.461342 -10.681044 0.000000 0.000000 4.029470 0.558412 -28.955053 4.315016 0.000000 0.000000 -18.486580 
-15.975658 8.975832 35.137290 -176.368034 -25.950187 -167.573829 6.266672 -0.611531 -29.644958 -2.872165 0.270332 12.464541 0.000000 0.000000 0.000000 12.860295 4.237577 -1.568800 -10.948526 -7.904699 -71.026880 -29.437201 -1.251700 10.092900 -42.548599 -7.230170 8.902008 0.000000 -10.310900 0.000000 7.049390 11.875900 26.596399 31.834900 -3.044390 3.823980 43.782200 2.798710 18.069000 0.000000 11.063400 0.000000 -0.585078 -6.526860 11.974600 2.138283 -21.748498 -10.762523 0.000000 0.000000 6.106760 0.465501 21.214910 -3.380863 0.000000 0.000000 -11.009750 3.692417 34.321432 -10.610374 0.000000 0.000000 4.022560 0.534773 -28.962898 4.272455 0.000000 0.000000 -18.485460 
-15.979805 8.975904 35.125810 -176.389740 -25.694793 -167.518070 6.229521 -0.519476 -29.739445 -2.783520 0.412479 12.453228 0.000000 0.000000 0.000000 12.848916 4.263904 -1.310177 -10.985741 -7.962101 -71.000306 -29.227301 -0.919648 9.958030 -42.940102 -6.041520 7.174011 0.000000 -9.457670 0.000000 6.931480 11.907400 25.883499 31.699301 -3.270310 3.772200 43.953899 2.018280 17.821991 0.000000 10.653800 0.000000 -0.493822 -6.744890 12.268000 2.058889 -21.645968 -10.595341 0.000000 0.000000 5.928640 0.532895 21.387369 -3.341762 0.000000 0.000000 -11.001110 3.616758 34.646682 -10.619180 0.000000 0.000000 4.045520 0.538976 -29.033960 4.238661 0.000000 0.000000 -18.477280 
-15.982594 8.975487 35.119486 -176.392010 -25.738744 -167.444348 6.226105 -0.528399 -29.784895 -2.760601 0.413106 12.342126 0.000000 0.000000 0.000000 12.892313 4.253093 -1.021904 -11.011762 -8.032803 -71.010973 -29.040701 -0.599821 9.687360 -43.269501 -4.918430 5.200989 0.000000 -8.420900 0.000000 6.765560 12.022200 24.970699 31.579300 -3.431420 3.707850 44.151600 1.212940 17.391998 0.000000 10.278500 0.000000 -0.385892 -6.805700 12.349800 2.031615 -21.367913 -10.673651 0.000000 0.000000 6.036200 0.553608 21.094881 -3.405136 0.000000 0.000000 -11.021240 3.607758 34.614666 -10.655593 0.000000 0.000000 4.056770 0.480961 -29.055101 4.236441 0.000000 0.000000 -18.510860 
-15.985560 8.975296 35.117742 -176.389181 -25.806537 -167.450985 6.244506 -0.490842 -29.700899 -2.792410 0.385723 12.190681 0.000000 0.000000 0.000000 12.948126 4.256775 -0.682831 -11.023836 -8.117637 -71.091648 -28.896200 -0.317406 9.452910 -43.527100 -3.996050 2.841003 0.000000 -7.189020 0.000000 6.320870 12.273900 23.851801 31.504999 -3.599800 3.659060 44.305901 0.506770 16.924011 0.000000 9.973960 0.000000 -0.169353 -6.824130 12.436200 2.040556 -21.478665 -10.706350 0.000000 0.000000 6.121260 0.547844 21.134739 -3.439402 0.000000 0.000000 -11.030560 3.630238 34.548423 -10.628921 0.000000 0.000000 4.072260 0.521275 -29.042621 4.185223 0.000000 0.000000 -18.505910 
